<?xml version="1.0" encoding="UTF-8" standalone="no"?>
<svg
   viewBox="0 0 512 512"
   version="1.1"
   id="svg826"
   sodipodi:docname="left-right-solid_white.svg"
   inkscape:version="1.1 (c4e8f9e, 2021-05-24)"
   xmlns:inkscape="http://www.inkscape.org/namespaces/inkscape"
   xmlns:sodipodi="http://sodipodi.sourceforge.net/DTD/sodipodi-0.dtd"
   xmlns="http://www.w3.org/2000/svg"
   xmlns:svg="http://www.w3.org/2000/svg">
  <defs
     id="defs830" />
  <sodipodi:namedview
     id="namedview828"
     pagecolor="#ffffff"
     bordercolor="#666666"
     borderopacity="1.0"
     inkscape:pageshadow="2"
     inkscape:pageopacity="0.0"
     inkscape:pagecheckerboard="0"
     showgrid="false"
     inkscape:zoom="1.2207031"
     inkscape:cx="256"
     inkscape:cy="256"
     inkscape:window-width="1312"
     inkscape:window-height="847"
     inkscape:window-x="0"
     inkscape:window-y="565"
     inkscape:window-maximized="0"
     inkscape:current-layer="svg826" />
  <!--! Font Awesome Pro 6.1.1 by @fontawesome - https://fontawesome.com License - https://fontawesome.com/license (Commercial License) Copyright 2022 Fonticons, Inc. -->
  <path
     d="M503.1 273.6l-112 104c-6.984 6.484-17.17 8.219-25.92 4.406s-14.41-12.45-14.41-22v-56l-192 .001V360c0 9.547-5.656 18.19-14.41 22c-8.75 3.812-18.94 2.078-25.92-4.406l-112-104c-9.781-9.094-9.781-26.09 0-35.19l112-104c6.984-6.484 17.17-8.219 25.92-4.406C154 133.8 159.7 142.5 159.7 152v55.1l192-.001v-56c0-9.547 5.656-18.19 14.41-22s18.94-2.078 25.92 4.406l112 104C513.8 247.5 513.8 264.5 503.1 273.6z"
     id="path824"
     style="fill:#ffffff" />
</svg>
