<?xml version="1.0" encoding="UTF-8" standalone="no"?>
<svg
   viewBox="0 0 480 512"
   version="1.1"
   id="svg826"
   sodipodi:docname="up-down-solid_arrow-down-a-z-solid_white.svg"
   width="480"
   height="512"
   inkscape:version="1.1 (c4e8f9e, 2021-05-24)"
   xmlns:inkscape="http://www.inkscape.org/namespaces/inkscape"
   xmlns:sodipodi="http://sodipodi.sourceforge.net/DTD/sodipodi-0.dtd"
   xmlns="http://www.w3.org/2000/svg"
   xmlns:svg="http://www.w3.org/2000/svg">
  <defs
     id="defs830" />
  <sodipodi:namedview
     id="namedview828"
     pagecolor="#ffffff"
     bordercolor="#666666"
     borderopacity="1.0"
     inkscape:pageshadow="2"
     inkscape:pageopacity="0.0"
     inkscape:pagecheckerboard="0"
     showgrid="false"
     inkscape:zoom="1.0399442"
     inkscape:cx="202.41471"
     inkscape:cy="287.03463"
     inkscape:window-width="1296"
     inkscape:window-height="847"
     inkscape:window-x="0"
     inkscape:window-y="565"
     inkscape:window-maximized="0"
     inkscape:current-layer="svg826" />
  <!--! Font Awesome Pro 6.1.1 by @fontawesome - https://fontawesome.com License - https://fontawesome.com/license (Commercial License) Copyright 2022 Fonticons, Inc. -->
  <path
     d="m 249.6,392.3 -104,112 c -9.094,9.781 -26.09,9.781 -35.19,0 L 7.31,392.3 C 0.826,385.316 -0.909,375.13 2.904,366.38 6.717,357.63 14.45,352 24,352 H 80 V 160 H 24 c -9.55,0 -18.188,-5.7 -22.001,-14.4 -3.812,-8.8 -2.0771,-18.9 4.407,-25.9 l 104,-112 c 9.094,-9.781 26.09,-9.781 35.19,0 l 104,112 c 6.484,6.984 8.219,17.17 4.406,25.92 C 250.2,154.3 241.5,160 232,160 h -56 v 192 h 56 c 9.547,0 18.19,5.656 22,14.41 3.81,8.754 2.1,18.89 -4.4,25.89 z"
     id="path824"
     style="fill:#ffffff" />
  <path
     id="path1747"
     d="m 367.98013,288.49107 c -11.6,0 -23.20109,5.45242 -28.62109,16.35742 l -79.96875,160.10156 c -7.906,15.91 -1.49945,35.23945 14.31055,43.18945 15.87,7.922 35.03968,1.47661 42.92968,-14.40039 l 7.1543,-14.39062 h 88.42969 l 7.1543,14.39062 c 6.174,12.43 23.96968,23.87039 42.92968,14.40039 15.792,-7.89 22.19102,-27.28945 14.29102,-43.18945 L 396.59928,304.84849 c -5.42,-10.905 -17.01915,-16.35742 -28.61915,-16.35742 z m 0.01,101.85742 16.2207,32.63086 h -32.38476 l -0.0352,0.0703 v -0.0703 h 0.0352 z"
     style="fill:#ffffff" />
</svg>
