<?xml version="1.0" encoding="UTF-8" standalone="no"?>
<svg
   viewBox="0 0 376.05701 376.064"
   version="1.1"
   id="svg1035"
   sodipodi:docname="up-right-and-down-left-from-center-solid_mod.svg"
   width="376.05701"
   height="376.064"
   inkscape:version="1.1 (c4e8f9e, 2021-05-24)"
   xmlns:inkscape="http://www.inkscape.org/namespaces/inkscape"
   xmlns:sodipodi="http://sodipodi.sourceforge.net/DTD/sodipodi-0.dtd"
   xmlns="http://www.w3.org/2000/svg"
   xmlns:svg="http://www.w3.org/2000/svg">
  <defs
     id="defs1039" />
  <sodipodi:namedview
     id="namedview1037"
     pagecolor="#ffffff"
     bordercolor="#666666"
     borderopacity="1.0"
     inkscape:pageshadow="2"
     inkscape:pageopacity="0.0"
     inkscape:pagecheckerboard="0"
     showgrid="false"
     inkscape:zoom="1.4707031"
     inkscape:cx="128.16999"
     inkscape:cy="256"
     inkscape:window-width="1680"
     inkscape:window-height="997"
     inkscape:window-x="0"
     inkscape:window-y="25"
     inkscape:window-maximized="1"
     inkscape:current-layer="svg1035" />
  <!--! Font Awesome Pro 6.1.1 by @fontawesome - https://fontawesome.com License - https://fontawesome.com/license (Commercial License) Copyright 2022 Fonticons, Inc. -->
  <path
     d="M 177.63191,370.39272 24.896849,376.04957 C 11.550209,376.53536 -0.46777759,364.51737 0.01376241,351.16649 L 6.3070124,199.06782 c 0.353553,-9.52332 6.3293126,-17.95274 15.2126946,-21.44372 8.883383,-3.49099 18.332451,-2.00394 25.085321,4.74893 L 86.203007,221.97101 221.96751,86.206497 182.36953,46.608517 c -6.75287,-6.75287 -8.83035,-16.891363 -5.37472,-25.73939 3.52705,-8.918031 11.89558,-14.8330495 21.43028,-15.1978455 L 351.16016,0.01442748 c 13.34664,-0.485783 25.36462,11.53220352 24.88308,24.88308652 l -5.65685,152.735066 c -0.35355,9.52332 -6.32931,17.95274 -15.2127,21.44372 -8.8261,3.44927 -19.00844,1.32795 -25.72595,-5.38957 l -39.59798,-39.59798 -135.7645,135.76451 39.59797,39.59798 c 6.75075,6.75074 8.86288,16.86166 5.36694,25.74575 -3.49593,8.88409 -11.87232,14.84218 -21.41826,15.19573 z"
     id="path1033" />
</svg>
